<svg xmlns="http://www.w3.org/2000/svg" xmlns:xlink="http://www.w3.org/1999/xlink" width="270" height="302" viewBox="0 0 270 302"><defs><clipPath id="b"><rect width="270" height="302"/></clipPath></defs><g id="a" clip-path="url(#b)"><g transform="translate(-124 -105)"><g transform="translate(12 37)"><path d="M26,52A26.007,26.007,0,0,1,15.88,2.043,26.007,26.007,0,0,1,36.121,49.957,25.837,25.837,0,0,1,26,52ZM26,9a17,17,0,1,0,12.021,4.979A16.889,16.889,0,0,0,26,9Z" transform="translate(218 69)" fill="#80d6e4"/><path d="M7.657,15.315A7.659,7.659,0,0,1,4.677.6a7.659,7.659,0,0,1,5.961,14.111A7.609,7.609,0,0,1,7.657,15.315Zm0-12.664A5.007,5.007,0,1,0,11.2,4.117,4.974,4.974,0,0,0,7.657,2.651Z" transform="translate(236 87.685)" fill="#80d6e4"/><g transform="translate(0 -1)"><path d="M26,52A26.007,26.007,0,0,1,15.88,2.043,26.007,26.007,0,0,1,36.121,49.957,25.837,25.837,0,0,1,26,52ZM26,9a17,17,0,1,0,12.021,4.979A16.889,16.889,0,0,0,26,9Z" transform="translate(218 194)" fill="#80d6e4"/><circle cx="17" cy="17" r="17" transform="translate(227 203)" fill="#c6f4fc"/></g><g transform="translate(0 122)"><path d="M26,52A26.007,26.007,0,0,1,15.88,2.043,26.007,26.007,0,0,1,36.121,49.957,25.837,25.837,0,0,1,26,52ZM26,9a17,17,0,1,0,12.021,4.979A16.889,16.889,0,0,0,26,9Z" transform="translate(218 194)" fill="#80d6e4"/><circle cx="17" cy="17" r="17" transform="translate(227 203)" fill="#c6f4fc"/></g><circle cx="4.5" cy="4.5" r="4.5" transform="translate(239 132)" fill="#80d6e4"/><circle cx="4.5" cy="4.5" r="4.5" transform="translate(239 152)" fill="#80d6e4"/><circle cx="4.5" cy="4.5" r="4.5" transform="translate(239 172)" fill="#80d6e4"/><circle cx="4.5" cy="4.5" r="4.5" transform="translate(240 256)" fill="#80d6e4"/><circle cx="4.5" cy="4.5" r="4.5" transform="translate(240 276)" fill="#80d6e4"/><circle cx="4.5" cy="4.5" r="4.5" transform="translate(240 296)" fill="#80d6e4"/></g><rect width="53" height="8" rx="4" transform="translate(293 120)" fill="#80d6e4"/><rect width="100" height="8" rx="4" transform="translate(293 133)" fill="#80d6e4"/><g transform="translate(0 248)"><rect width="43" height="8" rx="4" transform="translate(293 120)" fill="#80d6e4"/><rect width="23" height="8" rx="4" transform="translate(369 133)" fill="#80d6e4"/><rect width="68" height="8" rx="4" transform="translate(293 133)" fill="#80d6e4"/></g><g transform="translate(-168 126)"><rect width="43" height="8" rx="4" transform="translate(349 120)" fill="#80d6e4"/><rect width="23" height="8" rx="4" transform="translate(369 133)" fill="#80d6e4"/><rect width="68" height="8" rx="4" transform="translate(293 133)" fill="#80d6e4"/></g></g></g></svg>